<!-- <svg
  id="Capa_1"
  style="enable-background: new 0 0 150 150"
  version="1.1"
  viewBox="0 0 150 150"
  xml:space="preserve"
  xmlns="http://www.w3.org/2000/svg"
  xmlns:xlink="http://www.w3.org/1999/xlink"
>
  <style type="text/css">
    .st0 {
      fill: #1a73e8;
    }
    .st1 {
      fill: #ea4335;
    }
    .st2 {
      fill: #4285f4;
    }
    .st3 {
      fill: #fbbc04;
    }
    .st4 {
      fill: #34a853;
    }
    .st5 {
      fill: #4caf50;
    }
    .st6 {
      fill: #1e88e5;
    }
    .st7 {
      fill: #e53935;
    }
    .st8 {
      fill: #c62828;
    }
    .st9 {
      fill: #fbc02d;
    }
    .st10 {
      fill: #1565c0;
    }
    .st11 {
      fill: #2e7d32;
    }
    .st12 {
      fill: #f6b704;
    }
    .st13 {
      fill: #e54335;
    }
    .st14 {
      fill: #4280ef;
    }
    .st15 {
      fill: #34a353;
    }
    .st16 {
      clip-path: url(#SVGID_2_);
    }
    .st17 {
      fill: #188038;
    }
    .st18 {
      opacity: 0.2;
      fill: #ffffff;
      enable-background: new;
    }
    .st19 {
      opacity: 0.3;
      fill: #0d652d;
      enable-background: new;
    }
    .st20 {
      clip-path: url(#SVGID_4_);
    }
    .st21 {
      opacity: 0.3;
      fill: url(#_45_shadow_1_);
      enable-background: new;
    }
    .st22 {
      clip-path: url(#SVGID_6_);
    }
    .st23 {
      fill: #fa7b17;
    }
    .st24 {
      opacity: 0.3;
      fill: #174ea6;
      enable-background: new;
    }
    .st25 {
      opacity: 0.3;
      fill: #a50e0e;
      enable-background: new;
    }
    .st26 {
      opacity: 0.3;
      fill: #e37400;
      enable-background: new;
    }
    .st27 {
      fill: url(#Finish_mask_1_);
    }
    .st28 {
      fill: #ffffff;
    }
    .st29 {
      fill: #0c9d58;
    }
    .st30 {
      opacity: 0.2;
      fill: #004d40;
      enable-background: new;
    }
    .st31 {
      opacity: 0.2;
      fill: #3e2723;
      enable-background: new;
    }
    .st32 {
      fill: #ffc107;
    }
    .st33 {
      opacity: 0.2;
      fill: #1a237e;
      enable-background: new;
    }
    .st34 {
      opacity: 0.2;
    }
    .st35 {
      fill: #1a237e;
    }
    .st36 {
      fill: url(#SVGID_7_);
    }
    .st37 {
      fill: #fbbc05;
    }
    .st38 {
      clip-path: url(#SVGID_9_);
      fill: #e53935;
    }
    .st39 {
      clip-path: url(#SVGID_11_);
      fill: #fbc02d;
    }
    .st40 {
      clip-path: url(#SVGID_13_);
      fill: #e53935;
    }
    .st41 {
      clip-path: url(#SVGID_15_);
      fill: #fbc02d;
    }
  </style>
  <g>
    <path
      class="st14"
      d="M120,76.1c0-3.1-0.3-6.3-0.8-9.3H75.9v17.7h24.8c-1,5.7-4.3,10.7-9.2,13.9l14.8,11.5
C115,101.8,120,90,120,76.1L120,76.1z"
    />
    <path
      class="st15"
d="M75.9,120.9c12.4,0,22.8-4.1,30.4-11.1L91.5,98.4c-4.1,2.8-9.4,4.4-15.6,4.4c-12,0-22.1-8.1-25.8-18.9
L34.9,95.6C42.7,111.1,58.5,120.9,75.9,120.9z"
    />
    <path
      class="st12"
      d="M50.1,83.8c-1.9-5.7-1.9-11.9,0-17.6L34.9,54.4c-6.5,13-6.5,28.3,0,41.2L50.1,83.8z"
    />
    <path
      class="st13"
d="M75.9,47.3c6.5-0.1,12.9,2.4,17.6,6.9L106.6,41C98.3,33.2,87.3,29,75.9,29.1c-17.4,0-33.2,9.8-41,25.3
l15.2,11.8C53.8,55.3,63.9,47.3,75.9,47.3z"
    />
  </g>
</svg> -->

<svg width="46px" height="46px" viewBox="0 0 46 46" version="1.1" xmlns="http://www.w3.org/2000/svg"
  xmlns:xlink="http://www.w3.org/1999/xlink" xmlns:sketch="http://www.bohemiancoding.com/sketch/ns">
  <!-- Generator: Sketch 3.3.3 (12081) - http://www.bohemiancoding.com/sketch -->
  <title>btn_google_dark_normal_ios</title>
  <desc>Created with Sketch.</desc>
  <defs>
    <filter x="-50%" y="-50%" width="200%" height="200%" filterUnits="objectBoundingBox"
      id="filter-1">
      <feOffset dx="0" dy="1" in="SourceAlpha" result="shadowOffsetOuter1"></feOffset>
      <feGaussianBlur stdDeviation="0.5" in="shadowOffsetOuter1" result="shadowBlurOuter1"></feGaussianBlur>
      <feColorMatrix values="0 0 0 0 0   0 0 0 0 0   0 0 0 0 0  0 0 0 0.168 0" in="shadowBlurOuter1"
        type="matrix" result="shadowMatrixOuter1"></feColorMatrix>
      <feOffset dx="0" dy="0" in="SourceAlpha" result="shadowOffsetOuter2"></feOffset>
      <feGaussianBlur stdDeviation="0.5" in="shadowOffsetOuter2" result="shadowBlurOuter2"></feGaussianBlur>
      <feColorMatrix values="0 0 0 0 0   0 0 0 0 0   0 0 0 0 0  0 0 0 0.084 0" in="shadowBlurOuter2"
        type="matrix" result="shadowMatrixOuter2"></feColorMatrix>
      <feMerge>
        <feMergeNode in="shadowMatrixOuter1"></feMergeNode>
        <feMergeNode in="shadowMatrixOuter2"></feMergeNode>
        <feMergeNode in="SourceGraphic"></feMergeNode>
      </feMerge>
    </filter>
    <rect id="path-2" x="0" y="0" width="40" height="40" rx="2"></rect>
    <rect id="path-3" x="5" y="5" width="38" height="38" rx="1"></rect>
  </defs>
  <g id="Google-Button" stroke="none" stroke-width="1" fill="none" fill-rule="evenodd"
    sketch:type="MSPage">
    <g id="9-PATCH" sketch:type="MSArtboardGroup" transform="translate(-608.000000, -219.000000)"></g>
    <g id="btn_google_dark_normal" sketch:type="MSArtboardGroup"
      transform="translate(-1.000000, -1.000000)">
      <g id="button" sketch:type="MSLayerGroup" transform="translate(4.000000, 4.000000)"
        filter="url(#filter-1)">
        <g id="button-bg">
          <use fill="#4285F4" fill-rule="evenodd" sketch:type="MSShapeGroup" xlink:href="#path-2"></use>
          <use fill="none" xlink:href="#path-2"></use>
          <use fill="none" xlink:href="#path-2"></use>
          <use fill="none" xlink:href="#path-2"></use>
        </g>
      </g>
      <g id="button-bg-copy">
        <use fill="#FFFFFF" fill-rule="evenodd" sketch:type="MSShapeGroup" xlink:href="#path-3"></use>
        <use fill="none" xlink:href="#path-3"></use>
        <use fill="none" xlink:href="#path-3"></use>
        <use fill="none" xlink:href="#path-3"></use>
      </g>
      <g id="logo_googleg_48dp" sketch:type="MSLayerGroup"
        transform="translate(15.000000, 15.000000)">
        <path
          d="M17.64,9.20454545 C17.64,8.56636364 17.5827273,7.95272727 17.4763636,7.36363636 L9,7.36363636 L9,10.845 L13.8436364,10.845 C13.635,11.97 13.0009091,12.9231818 12.0477273,13.5613636 L12.0477273,15.8195455 L14.9563636,15.8195455 C16.6581818,14.2527273 17.64,11.9454545 17.64,9.20454545 L17.64,9.20454545 Z"
          id="Shape" fill="#4285F4" sketch:type="MSShapeGroup"></path>
        <path
          d="M9,18 C11.43,18 13.4672727,17.1940909 14.9563636,15.8195455 L12.0477273,13.5613636 C11.2418182,14.1013636 10.2109091,14.4204545 9,14.4204545 C6.65590909,14.4204545 4.67181818,12.8372727 3.96409091,10.71 L0.957272727,10.71 L0.957272727,13.0418182 C2.43818182,15.9831818 5.48181818,18 9,18 L9,18 Z"
          id="Shape" fill="#34A853" sketch:type="MSShapeGroup"></path>
        <path
          d="M3.96409091,10.71 C3.78409091,10.17 3.68181818,9.59318182 3.68181818,9 C3.68181818,8.40681818 3.78409091,7.83 3.96409091,7.29 L3.96409091,4.95818182 L0.957272727,4.95818182 C0.347727273,6.17318182 0,7.54772727 0,9 C0,10.4522727 0.347727273,11.8268182 0.957272727,13.0418182 L3.96409091,10.71 L3.96409091,10.71 Z"
          id="Shape" fill="#FBBC05" sketch:type="MSShapeGroup"></path>
        <path
          d="M9,3.57954545 C10.3213636,3.57954545 11.5077273,4.03363636 12.4404545,4.92545455 L15.0218182,2.34409091 C13.4631818,0.891818182 11.4259091,0 9,0 C5.48181818,0 2.43818182,2.01681818 0.957272727,4.95818182 L3.96409091,7.29 C4.67181818,5.16272727 6.65590909,3.57954545 9,3.57954545 L9,3.57954545 Z"
          id="Shape" fill="#EA4335" sketch:type="MSShapeGroup"></path>
        <path d="M0,0 L18,0 L18,18 L0,18 L0,0 Z" id="Shape" sketch:type="MSShapeGroup"></path>
      </g>
      <g id="handles_square" sketch:type="MSLayerGroup"></g>
    </g>
  </g>
</svg>
